# xmcd
#
# Track frame offsets: 
#        150
#        5085
#        14460
#        29855
#        31265
#        50902
#        60830
#        69047
#        81572
#        87327
#        98352
#        108155
#        120277
#        131300
#        143125
#        150740
#
# Disc length: 2215 seconds
#
# Revision: 1
# Processed by: cddbd v1.5.2PL0 Copyright (c) Steve Scherf et al.
# Submitted via: ExactAudioCopy v0.95a5
#
DISCID=c508a510
DTITLE=Ralph Gean - Boyd Rice Rresents: Ralph Gean - A Star Unborn
DYEAR=1997
DGENRE=Country
TTITLE0=Homicidal Me
TTITLE1=Hey Doctor Casey
TTITLE2=Electricity
TTITLE3=Japanese Rain Song
TTITLE4=Planet Of The Rain
TTITLE5=Granny's Grave
TTITLE6=You're Drivin' Me Crazy
TTITLE7=Asshole-Song
TTITLE8=Bobbit Song (Lorena, Lorena)
TTITLE9=Star Trekkin' Rock N' Roll Cowboy
TTITLE10=Hard To Be A Killer
TTITLE11=Goddess Of Love
TTITLE12=Experimental Love
TTITLE13=Guitar Pickin' Teabag
TTITLE14=Wearin' That Loved On Look
TTITLE15=Untitled
EXTD=
EXTT0=
EXTT1=
EXTT2=
EXTT3=
EXTT4=
EXTT5=
EXTT6=
EXTT7=
EXTT8=
EXTT9=
EXTT10=
EXTT11=
EXTT12=
EXTT13=
EXTT14=
EXTT15=
PLAYORDER=
